<?xml version="1.0" encoding="UTF-8" standalone="no"?>
<!-- Created with Inkscape (http://www.inkscape.org/) -->

<svg
   xmlns:dc="http://purl.org/dc/elements/1.1/"
   xmlns:cc="http://creativecommons.org/ns#"
   xmlns:rdf="http://www.w3.org/1999/02/22-rdf-syntax-ns#"
   xmlns:svg="http://www.w3.org/2000/svg"
   xmlns="http://www.w3.org/2000/svg"
   xmlns:sodipodi="http://sodipodi.sourceforge.net/DTD/sodipodi-0.dtd"
   xmlns:inkscape="http://www.inkscape.org/namespaces/inkscape"
   width="137.41583mm"
   height="70.01004mm"
   viewBox="0 0 486.90649 248.06707"
   id="svg4196"
   version="1.1"
   inkscape:version="0.91 r13725"
   sodipodi:docname="add-to-crm.svg">
  <defs
     id="defs4198" />
  <sodipodi:namedview
     id="base"
     pagecolor="#ffffff"
     bordercolor="#666666"
     borderopacity="1.0"
     inkscape:pageopacity="0.0"
     inkscape:pageshadow="2"
     inkscape:zoom="1.4"
     inkscape:cx="183.50498"
     inkscape:cy="174.60264"
     inkscape:document-units="px"
     inkscape:current-layer="g4762"
     showgrid="false"
     inkscape:window-width="1920"
     inkscape:window-height="1031"
     inkscape:window-x="0"
     inkscape:window-y="25"
     inkscape:window-maximized="1"
     fit-margin-top="0"
     fit-margin-left="0"
     fit-margin-right="0"
     fit-margin-bottom="0" />
  <metadata
     id="metadata4201">
    <rdf:RDF>
      <cc:Work
         rdf:about="">
        <dc:format>image/svg+xml</dc:format>
        <dc:type
           rdf:resource="http://purl.org/dc/dcmitype/StillImage" />
        <dc:title></dc:title>
      </cc:Work>
    </rdf:RDF>
  </metadata>
  <g
     inkscape:label="Layer 1"
     inkscape:groupmode="layer"
     id="layer1"
     transform="translate(-334.07631,-191.18582)">
    <g
       style="fill:#000000"
       id="g4156"
       transform="matrix(3.1331713,0,0,3.1331713,317.4705,158.52073)">
      <g
         id="g4140"
         style="fill:#000000">
        <path
           id="path4142"
           d="m 93.2,31.7 -15.6,0 c -2.8,0 -5,-2.2 -5,-5 0,-4.3 -3.3,-7.7 -7.5,-8 L 49,10.6 c -0.6,-0.3 -1.2,-0.2 -1.7,0.2 -0.5,0.4 -0.6,1.1 -0.4,1.7 L 48,15.2 38,11.1 c -0.6,-0.3 -1.3,-0.1 -1.7,0.4 -0.4,0.5 -0.5,1.2 -0.1,1.8 l 5.8,8.8 c -3.9,4.8 -6.8,12.2 -4.8,23.2 -3.3,1.4 -13.1,6 -22,13.5 -0.6,0.5 -0.7,1.5 -0.2,2.1 0.3,0.4 0.7,0.5 1.1,0.5 0.3,0 0.7,-0.1 1,-0.4 3.8,-3.2 7.8,-5.9 11.3,-7.9 2.8,5 14.1,20.7 43.8,21.2 -1.8,4.3 -4.4,8.8 -8.4,12.8 -0.6,0.6 -0.6,1.5 0,2.1 0.3,0.3 0.7,0.4 1.1,0.4 0.4,0 0.8,-0.1 1.1,-0.4 C 78.4,76.8 79,60.1 78.9,55.5 l 2.4,0 1.6,0 c 7.4,0 11.9,-5.6 11.9,-14.5 l 0,-7.8 C 94.7,32.3 94,31.7 93.2,31.7 Z M 46.3,17.8 c -0.8,0.6 -1.5,1.3 -2.3,2 l -2.7,-4.1 5,2.1 z M 31,51.6 c 3.1,-1.7 5.7,-2.9 7.1,-3.5 0.9,1.7 2.9,4.6 6.4,7.6 -1,2.8 0,6 2.8,8.8 2.1,2.1 4.5,3.2 6.7,3.2 1.8,0 3.5,-0.7 4.9,-2.1 l 1.8,-1.8 c 4.3,1.1 9,1.7 14,1.8 -0.4,1.8 -0.9,3.8 -1.5,5.8 C 44.1,71.2 33.5,56 31,51.6 Z m 26.5,0.5 -9,9 c -1.2,-1.6 -2.3,-4 -0.1,-6.2 l 6.7,-6.7 c 0.6,1.6 1.4,2.9 2.4,3.9 z m -0.6,11.3 c -2.2,2.2 -4.7,1.1 -6.2,-0.1 L 60,54 c 1.4,0.8 3.1,1.3 4.9,1.4 l -8,8 z M 75.3,62.5 C 71,62.5 67,62 63.3,61.2 l 5.7,-5.7 6.8,0 c 0,1.3 0,3.8 -0.5,7 z m 7.5,-10 -1.6,0 -13.9,0 -1.6,0 c -8.1,0 -8.9,-8.1 -8.9,-11.5 0,-0.8 -0.7,-1.5 -1.5,-1.5 -0.8,0 -1.5,0.7 -1.5,1.5 0,1.4 0.1,2.7 0.3,4 l -7.9,7.9 C 46.1,53 46.1,53 46,53.1 42,49.6 40.4,46.3 40.1,45.7 38.7,38.8 38.2,26.5 49.4,19.2 l 2.5,6.1 c 0.2,0.6 0.8,0.9 1.4,0.9 0.2,0 0.4,0 0.6,-0.1 0.8,-0.3 1.1,-1.2 0.8,-2 l -3.7,-9 7.8,3.9 c -0.3,0.3 -0.6,0.7 -0.6,1.2 0,0.8 0.7,1.5 1.5,1.5 l 4.6,0 c 0.1,0 0.1,0 0.2,0 2.7,0.1 4.9,2.3 4.9,5 0,0.1 0,0.3 0,0.4 l -4.8,0 c -0.8,0 -1.5,0.7 -1.5,1.5 0,0.8 0.7,1.5 1.5,1.5 l 5.3,0 c 0.1,0 0.2,0 0.2,0 1.3,2.7 4,4.7 7.3,4.7 l 14.1,0 0,6.2 c 0.2,3.4 -0.7,11.5 -8.7,11.5 z"
           inkscape:connector-curvature="0"
           style="fill:#000000" />
        <path
           id="path4144"
           d="m 30.8,28 c 0,-0.8 -0.7,-1.5 -1.5,-1.5 l -22.5,0 c -0.8,0 -1.5,0.7 -1.5,1.5 0,0.8 0.7,1.5 1.5,1.5 l 22.5,0 c 0.8,0 1.5,-0.7 1.5,-1.5 z"
           inkscape:connector-curvature="0"
           style="fill:#000000" />
        <path
           id="path4146"
           d="m 28.6,38 c 0,-0.8 -0.7,-1.5 -1.5,-1.5 l -14,0 c -0.8,0 -1.5,0.7 -1.5,1.5 0,0.8 0.7,1.5 1.5,1.5 l 14,0 c 0.8,0 1.5,-0.7 1.5,-1.5 z"
           inkscape:connector-curvature="0"
           style="fill:#000000" />
        <path
           id="path4148"
           d="m 23.1,19.5 10,0 c 0.8,0 1.5,-0.7 1.5,-1.5 0,-0.8 -0.7,-1.5 -1.5,-1.5 l -10,0 c -0.8,0 -1.5,0.7 -1.5,1.5 0,0.8 0.6,1.5 1.5,1.5 z"
           inkscape:connector-curvature="0"
           style="fill:#000000" />
      </g>
    </g>
    <g
       id="g4762"
       transform="matrix(2.1907701,0,0,2.1907701,78.857266,139.77714)">
      <path
         id="path4764"
         d="m 304.75099,104.93025 c 17.7,0 32,-14.300003 32,-32.000003 0,-17.7 -14.3,-32 -32,-32 -15.4,0 -28.3,10.9 -31.3,25.4 l -12.7,6.6 12.7,6.6 c 3,14.5 15.9,25.400003 31.3,25.400003 z"
         stroke-miterlimit="10"
         inkscape:connector-curvature="0"
         style="fill:none;stroke:#000000;stroke-width:4;stroke-linecap:round;stroke-linejoin:round;stroke-miterlimit:10" />
      <line
         id="line4766"
         y2="71.494972"
         x2="285.64175"
         y1="71.494972"
         x1="321.64175"
         stroke-miterlimit="10"
         style="fill:none;stroke:#000000;stroke-width:4;stroke-linejoin:round;stroke-miterlimit:10" />
      <line
         id="line4768"
         y2="89.494972"
         x2="303.64175"
         y1="53.494968"
         x1="303.64175"
         stroke-miterlimit="10"
         style="fill:none;stroke:#000000;stroke-width:4;stroke-linejoin:round;stroke-miterlimit:10" />
    </g>
  </g>
</svg>
