<?xml version="1.0" encoding="UTF-8" standalone="no"?>
<svg
   xmlns:dc="http://purl.org/dc/elements/1.1/"
   xmlns:cc="http://creativecommons.org/ns#"
   xmlns:rdf="http://www.w3.org/1999/02/22-rdf-syntax-ns#"
   xmlns:svg="http://www.w3.org/2000/svg"
   xmlns="http://www.w3.org/2000/svg"
   xmlns:sodipodi="http://sodipodi.sourceforge.net/DTD/sodipodi-0.dtd"
   xmlns:inkscape="http://www.inkscape.org/namespaces/inkscape"
   version="1.2"
   x="0px"
   y="0px"
   viewBox="0 0 58.854407 58.854408"
   xml:space="preserve"
   id="svg2"
   inkscape:version="0.91 r13725"
   sodipodi:docname="dog.svg"
   width="58.854408"
   height="58.854408"
   style="fill:#000000"><metadata
     id="metadata18"><rdf:RDF><cc:Work
         rdf:about=""><dc:format>image/svg+xml</dc:format><dc:type
           rdf:resource="http://purl.org/dc/dcmitype/StillImage" /><dc:title></dc:title></cc:Work></rdf:RDF></metadata><defs
     id="defs16" /><sodipodi:namedview
     pagecolor="#ffffff"
     bordercolor="#666666"
     borderopacity="1"
     objecttolerance="10"
     gridtolerance="10"
     guidetolerance="10"
     inkscape:pageopacity="0"
     inkscape:pageshadow="2"
     inkscape:window-width="1361"
     inkscape:window-height="754"
     id="namedview14"
     showgrid="false"
     fit-margin-top="0"
     fit-margin-left="0"
     fit-margin-right="0"
     fit-margin-bottom="0"
     inkscape:zoom="8"
     inkscape:cx="25.898336"
     inkscape:cy="36.98452"
     inkscape:window-x="0"
     inkscape:window-y="25"
     inkscape:window-maximized="0"
     inkscape:current-layer="g4" /><g
     id="g4"
     transform="translate(-37.521952,-8.8458218)"><path
       d="m 17.828125,0.74609375 c -0.2875,0.0375 -0.5625,0.16328125 -0.8125,0.36328125 -0.5,0.4 -0.600391,1.0992188 -0.400391,1.6992188 L 17.714844,5.5097656 7.7148438,1.4101562 c -0.6000001,-0.3 -1.2992188,-0.1015624 -1.6992188,0.3984376 -0.4,0.5 -0.4996094,1.2007812 -0.099609,1.8007812 0,0 5.646406,5.2909367 5.798828,8.800781 0.160239,3.68983 -8.7569032,5.016507 -4.798828,23.199219 1.5159212,5.250207 7.615381,6.777838 7.665837,8.979119 0.04888,2.132346 -0.01779,4.663883 0.345677,6.209063 0.453693,1.928772 1.342797,3.243052 2.088095,4.011037 2.1,2.1 4.499219,3.201172 6.699219,3.201172 8.086468,-0.04668 10.73609,-10.291415 14.729362,-11.64201 3.89379,-1.091068 11.923104,-0.368347 14.171028,-0.559162 7.389807,-0.388273 11.900391,-5.6 11.900391,-14.5 l 0,-7.798828 c -0.1,-0.9 -0.799609,-1.5 -1.599609,-1.5 l -15.59961,0 c -2.8,0 -5,-2.2 -5,-5 0,-4.3 -3.3,-7.7000004 -7.5,-8.0000004 L 18.714844,0.91015625 c -0.3,-0.15 -0.599219,-0.2015625 -0.886719,-0.1640625 z m 2.886719,4.66406245 7.800781,3.8984376 c -0.3,0.3 -0.599609,0.7011722 -0.599609,1.2011722 0,0.8 0.7,1.5 1.5,1.5 l 4.599609,0 0.199219,0 c 2.7,0.1 4.90039,2.3 4.90039,5 l 0,0.40039 -4.798828,0 c -0.8,0 -1.5,0.7 -1.5,1.5 0,0.8 0.7,1.5 1.5,1.5 l 5.298828,0 0.201172,0 c 1.3,2.7 3.998828,4.699219 7.298828,4.699219 l 14.09961,0 0,6.199219 c 0.2,3.4 -0.699219,11.5 -8.699219,11.5 l -1.599609,0 -13.900391,0 -1.599609,0 c -8.1,0 -8.900391,-8.1 -8.900391,-11.5 0,-0.8 -0.7,-1.5 -1.5,-1.5 -0.8,0 -1.5,0.7 -1.5,1.5 0,1.4 0.100781,2.7 0.300781,4 -2.613353,1.671035 -4.83395,6.018411 -6.664062,6.039062 -2.466606,-0.124423 -5.842882,-2.560729 -7.4609378,-5.65039 -1.3999999,-6.9 -1.7761718,-18.8875 9.4238278,-26.1875004 l 2.5,6.0996094 c 0.2,0.6 0.800391,0.900391 1.400391,0.900391 0.2,0 0.399609,3.9e-4 0.599609,-0.09961 0.8,-0.3 1.100782,-1.2 0.800782,-2 z m -9.699219,0.5996094 5,2.0996094 c -0.8,0.6 -1.500781,1.3 -2.300781,2 z M 24.816406,38.509766 c 0.6,1.6 1.398438,2.90039 2.398438,3.90039 l -9,9 c -1.2,-1.6 -2.29961,-4.001172 -0.09961,-6.201172 z m 4.898438,5.798828 c 1.4,0.8 3.10039,1.30039 4.90039,1.40039 l -8,8 c -2.2,2.2 -4.699218,1.100391 -6.199218,-0.09961 z"
       transform="translate(31.860736,9.6904676)"
       id="path6"
       inkscape:connector-curvature="0"
       sodipodi:nodetypes="sscccscscssccccscsssccsccssccscsssccsccsccsssscccccsccccccccccccccscc" /></g></svg>